<svg width="812px" height="812px" viewBox="0 0 812 812" version="1.1" xmlns="http://www.w3.org/2000/svg"
     xmlns:xlink="http://www.w3.org/1999/xlink">
    <!-- Generator: Sketch 44.1 (41455) - http://www.bohemiancoding.com/sketch -->
    <desc>Created with Sketch.</desc>
    <defs></defs>
    <g id="out" stroke="none" stroke-width="1" fill="none" fill-rule="evenodd">

        <g id="body">
            <g id="outer" fill="#7C2E9A">
                <path d="M801.168826,420.689886 C797.121484,427.673503 780.618263,432.961565 777.896398,433.833468 C775.175792,434.702204 771.708949,437.217653 771.708949,437.217653 C770.08869,432.156377 770.915698,426.96419 771.612654,420.254564 C772.292847,413.514728 789.25002,404.677793 794.075277,402.325165 C798.934522,399.96939 803.049208,395.986874 803.049208,395.986874 C806.466959,403.452597 805.266938,413.643961 801.169015,420.690096 L801.168826,420.689886 Z M798.432905,454.875788 C793.637857,461.536742 776.438121,465.453592 773.555554,466.100596 C770.704876,466.759307 766.866908,469.051346 766.866908,469.051346 C765.813722,463.712933 767.271978,458.473542 768.777479,451.732028 C770.267791,444.992192 788.293339,437.783466 793.331747,435.929938 C798.368057,434.074836 802.838973,430.559636 802.838973,430.559636 C805.431396,438.220257 803.195098,448.216723 798.433933,454.876837 L798.432905,454.875788 Z M792.974699,488.608536 C787.759435,494.946826 770.350534,497.800022 767.4344,498.267233 C764.517846,498.751164 760.5668,500.782661 760.5668,500.782661 C759.837682,495.397254 761.652042,490.268634 763.562655,483.626352 C765.491793,476.998965 783.937621,470.921239 789.105052,469.371911 C794.222343,467.824304 798.904311,464.614837 798.904311,464.614837 C800.992096,472.435111 798.158306,482.256818 792.975119,488.608955 L792.974699,488.608536 Z M783.985454,521.747566 C778.13892,527.487735 760.484351,528.453836 757.555629,528.647056 C754.605299,528.793282 750.444877,530.404708 750.444877,530.404708 C750.33012,524.988881 752.662608,520.053691 755.304122,513.668407 C757.942069,507.283122 776.959039,503.203262 782.237452,502.236951 C787.516913,501.23548 792.521125,498.541853 792.521125,498.541853 C793.753202,506.523459 789.849401,516.00572 783.986083,521.747147 L783.985454,521.747566 Z M771.902589,554.850932 C765.667936,560.189346 747.996584,559.945775 745.04898,559.932348 C742.100328,559.865214 737.82536,561.20437 737.82536,561.20437 C738.100463,555.786865 740.789117,551.02979 743.850638,544.837725 C746.927474,538.647339 766.185288,535.873026 771.514051,535.243015 C776.859177,534.614557 782.040665,532.260376 782.040665,532.260376 C782.68876,540.324431 778.155284,549.482351 771.902169,554.850974 L771.902589,554.850932 Z M757.537796,585.923494 C750.800058,590.665464 733.258358,588.729696 730.327539,588.438922 C727.39588,588.099497 723.024406,589.003519 723.024406,589.003519 C723.799112,583.633217 726.926571,579.168385 730.587473,573.298984 C734.26348,567.412799 753.683674,566.510475 759.075375,566.379354 C764.452601,566.283478 769.830036,564.413334 769.830036,564.413334 C769.732062,572.507599 764.275535,581.21677 757.537796,585.923494 Z M740.644779,616.108628 C733.615218,620.398492 716.189114,617.382349 713.306547,616.883271 C710.406987,616.382535 705.984953,617.011035 705.984953,617.011035 C707.11914,611.691084 710.535171,607.433109 714.569086,601.805599 C718.586008,596.17809 738.055504,596.483969 743.415736,596.693973 C748.808276,596.919145 754.283475,595.405147 754.283475,595.405147 C753.635359,603.467523 747.675809,611.80368 740.646248,616.108649 L740.644779,616.108628 Z M720.399676,644.651077 C712.980108,648.213166 695.973382,643.441049 693.157949,642.649623 C690.324054,641.859854 685.853138,642.037969 685.853138,642.037969 C687.520684,636.862565 691.360436,632.974247 695.959536,627.78185 C700.54353,622.591341 719.863443,624.864877 725.194304,625.622652 C730.505863,626.395595 736.143023,625.46132 736.143023,625.46132 C734.669578,633.394254 727.850923,641.102079 720.400935,644.651161 L720.399676,644.651077 Z M698.63147,671.288597 C690.923435,674.238928 674.368815,668.063647 671.631006,667.031881 C668.862986,666.015786 664.39207,665.805741 664.39207,665.805741 C666.530499,660.791669 670.677493,657.227272 675.69681,652.454882 C680.718015,647.649345 699.764356,651.551027 705.013398,652.745572 C710.259082,653.969048 715.92834,653.486606 715.92834,653.486606 C713.79159,661.291775 706.339924,668.386582 698.630211,671.288451 L698.63147,671.288597 Z M674.224057,695.477824 C666.272872,697.702268 650.383088,690.075843 647.727099,688.816661 C645.087473,687.543296 640.648445,686.931642 640.648445,686.931642 C643.207091,682.124217 647.695,678.963044 653.121107,674.643389 C658.560851,670.321007 677.186556,675.899614 682.305525,677.576726 C687.406032,679.253713 693.090395,679.287154 693.090395,679.287154 C690.241395,686.833857 682.173774,693.25124 674.222589,695.477572 L674.224057,695.477824 Z M647.435485,718.083108 C639.322339,719.566518 624.194526,710.536614 621.685392,709.021064 C619.141852,707.536982 614.79933,706.538574 614.79933,706.538574 C617.779871,701.991922 622.541141,699.233133 628.357255,695.443628 C634.171691,691.60566 652.198224,698.861379 657.136771,700.990157 C662.027904,703.117466 667.72926,703.668804 667.72926,703.668804 C664.181647,710.956622 655.55031,716.598816 647.435275,718.082898 L647.435485,718.083108 Z M619.140593,737.593513 C610.878913,738.431681 596.757691,728.193281 594.376532,726.499826 C592.027051,724.790573 587.785649,723.45278 587.785649,723.45278 C591.218715,719.148231 596.255025,716.792666 602.425481,713.47184 C608.628035,710.132761 625.844765,718.82389 630.544146,721.339317 C635.239541,723.854745 640.842924,724.871406 640.842924,724.871406 C636.567746,731.853344 627.399756,736.788744 619.141852,737.593513 L619.140593,737.593513 Z M589.404418,754.993602 C581.110639,754.913041 568.122934,743.269904 565.953666,741.335605 C563.800132,739.400005 559.73244,737.609877 559.73244,737.609877 C563.621178,733.708341 568.870219,731.886911 575.379911,729.240362 C581.889813,726.565491 598.087994,736.998957 602.474783,739.99775 C606.86304,743.012697 612.338239,744.609018 612.338239,744.609018 C607.334027,751.075073 597.681413,755.008707 589.403579,754.993602 L589.404418,754.993602 Z M558.080104,769.908054 C549.917866,769.264805 537.899198,756.6537 535.890212,754.55849 C533.898618,752.461244 529.994796,750.397649 529.994796,750.397649 C534.075915,746.784999 539.388943,745.366374 545.964721,743.17214 C552.557282,741.028257 567.814746,752.622093 571.960272,755.944807 C576.107057,759.281788 581.371413,761.266017 581.371413,761.266017 C576.026286,767.360528 566.24381,770.585268 558.080104,769.907844 L558.080104,769.908054 Z M525.752975,781.793293 C517.555491,780.4542 506.591457,766.942618 504.77716,764.700972 C502.94759,762.425338 499.205875,760.039353 499.205875,760.039353 C503.660008,756.799927 509.135207,755.814735 516.001129,754.203309 C522.836631,752.590666 537.169325,765.393501 541.042119,769.054613 C544.895402,772.682577 550.046469,775.117025 550.046469,775.117025 C544.086856,780.744954 533.931577,783.130939 525.754443,781.793293 L525.752975,781.793293 Z M492.225825,791.161216 C484.240863,788.966773 474.831401,774.325473 473.277038,771.908018 C471.688815,769.456368 468.255833,766.683733 468.255833,766.683733 C473.032209,763.942567 478.588388,763.554868 485.586061,762.684224 C492.549957,761.81381 505.410737,776.100118 508.843803,780.145992 C512.293653,784.193964 517.135904,787.129818 517.135904,787.129818 C510.560336,792.096687 500.193794,793.38587 492.224986,791.160797 L492.225825,791.161216 Z M458.279088,797.595173 C450.505178,794.70841 442.454341,779.324649 441.110821,776.762018 C439.765665,774.181134 436.575708,771.13283 436.575708,771.13283 C441.612019,768.811252 447.168198,768.893281 454.196291,768.649711 C461.225852,768.375321 472.756959,783.743956 475.834425,788.06424 C478.880841,792.385993 483.448052,795.755072 483.448052,795.755072 C476.482478,800.110811 466.021739,800.481726 458.279088,797.594942 L458.279088,797.595173 Z M423.554016,800.673688 C416.070461,797.128592 409.430696,781.082512 408.32844,778.422956 C407.195931,775.746196 404.296412,772.408587 404.296412,772.408587 C409.511677,770.538505 415.067856,771.10176 422.063641,771.489585 C429.091524,771.844136 439.198131,788.145325 441.856219,792.724915 C444.543258,797.303874 448.755918,801.061701 448.755918,801.061701 C441.434323,804.801696 431.003794,804.254343 423.553387,800.673121 L423.554016,800.673688 Z M388.862511,800.690471 C381.736654,796.513266 376.487613,779.969765 375.628507,777.212445 C374.754234,774.470021 372.163553,770.890728 372.163553,770.890728 C377.508679,769.455885 382.967095,770.504078 389.962879,771.472298 C396.928454,772.42472 405.544476,789.515615 407.811298,794.304159 C410.079589,799.093122 413.96497,803.204661 413.96497,803.204661 C406.320923,806.285064 395.988368,804.864676 388.86314,800.689443 L388.862511,800.690471 Z M354.638846,797.915948 C347.884324,793.128873 344.127337,776.229561 343.496067,773.391051 C342.864839,770.584849 340.564408,766.812756 340.564408,766.812756 C346.039607,765.844705 351.383056,767.360213 358.250656,768.892862 C365.118257,770.440616 372.244113,788.210257 374.073725,793.159712 C375.904974,798.126581 379.435845,802.544209 379.435845,802.544209 C371.563962,804.981384 361.376584,802.690645 354.638217,797.916577 L354.638846,797.915948 Z M320.8033,791.823326 C314.455568,786.580159 311.96091,769.440424 311.508594,766.58513 C311.086636,763.71536 309.093448,759.781516 309.093448,759.781516 C314.617529,759.216416 319.832793,761.102273 326.570532,763.133812 C333.291276,765.166546 339.073613,783.420664 340.563989,788.483198 C342.022245,793.545943 345.197075,798.222666 345.197075,798.222666 C337.178336,800.092706 327.186696,797.061542 320.804349,791.822277 L320.8033,791.823326 Z M287.018104,782.90583 C281.220661,777.036428 280.442536,759.71732 280.312464,756.864124 C280.18428,753.977361 278.595994,749.848618 278.595994,749.848618 C284.152173,749.833933 289.156385,752.219708 295.634189,754.913461 C302.145769,757.622318 306.049613,776.327115 307.004804,781.519512 C307.943211,786.71149 310.665706,791.677099 310.665706,791.677099 C302.469901,792.725313 292.847707,788.741664 287.017747,782.90583 L287.018104,782.90583 Z M250.316774,744.848812 C250.414748,741.963308 249.15053,737.722536 249.15053,737.722536 C254.689926,738.157753 259.484763,740.930283 265.736409,744.141388 C271.988055,747.317666 274.38453,766.264145 274.902721,771.553047 C275.437737,776.793067 277.736616,781.937841 277.736616,781.937841 C269.493397,782.357932 260.214007,777.616089 254.883775,771.32668 C249.572425,765.03874 250.203695,747.718792 250.316774,744.848812 Z M218.344196,714.311225 C218.344196,714.311225 208.433537,700.458959 192.138851,697.459117 C192.138851,697.459117 186.324416,684.802676 167.003454,677.770807 C167.003454,677.770807 163.01863,664.033927 144.393975,656.648765 C144.393975,656.648765 142.482711,644.584992 123.257248,632.266528 C123.257248,632.266528 121.070987,619.013643 104.534828,607.080781 C104.534828,607.080781 103.222065,591.924017 88.2252475,580.346755 C88.2252475,580.346755 89.0671081,567.463527 74.1986429,551.336466 C74.1986429,551.336466 74.4583886,533.906167 62.8615949,521.956941 C62.8615949,521.956941 64.1900513,503.590751 53.9216511,491.998384 C53.9216511,491.998384 57.1766021,476.243498 47.8640645,462.278992 C45.6937475,458.698231 49.1918496,456.764142 49.0627215,452.007067 C48.9651673,447.218104 47.151311,435.415314 44.1390704,429.319964 C44.1390704,429.319964 51.0062514,417.034858 43.2806571,398.150897 C43.2806571,398.150897 50.4069334,387.420154 45.4669184,366.176222 C45.4669184,366.176222 53.4350973,355.774855 50.1644117,334.765892 C50.1644117,334.765892 58.391686,328.194101 57.5332097,304.563975 C57.5332097,304.563975 66.5872813,298.824016 67.6882793,274.716609 C67.6882793,274.716609 78.7985401,267.081163 80.3539514,245.697928 C80.3539514,245.697928 91.1249756,241.634851 95.3516916,218.238016 C95.3516916,218.238016 107.56295,212.634004 112.876189,192.680933 C112.876189,192.680933 119.143359,188.392748 122.771953,183.965049 C126.415232,179.555813 131.112726,172.510097 132.910659,167.252245 C132.910659,167.252245 141.138562,163.800717 146.207181,156.997104 C151.293002,150.191602 154.305851,143.976041 154.305851,143.976041 C154.305851,143.976041 168.315043,141.106061 178.599975,122.84351 C178.599975,122.84351 192.139439,121.89243 203.848661,104.347877 C203.848661,104.347877 217.113084,103.267397 230.651918,88.3458541 C230.651918,88.3458541 245.391402,88.5794175 258.930027,74.1386169 C258.930027,74.1386169 273.409576,76.3970474 288.408156,62.6735948 C288.408156,62.6735948 301.574606,66.1335144 318.838748,53.8534432 C318.838748,53.8534432 330.808534,58.731569 349.531583,47.9924334 C349.531583,47.9924334 360.902198,52.9997922 381.309052,44.1712489 C381.309052,44.1712489 390.848377,51.0959133 413.086522,43.704122 C413.086522,43.704122 425.783663,50.7414457 444.117125,45.7104432 C444.117125,45.7104432 453.804983,53.3626726 475.183393,50.4994066 C475.183393,50.4994066 484.594533,60.1664958 506.344068,57.8845684 C506.344068,57.8845684 512.14151,67.2054978 536.30682,67.8019416 C536.30682,67.8019416 540.90592,77.3563715 564.82829,80.3474019 C564.82829,80.3474019 570.254607,91.0949293 592.846253,95.5125576 C592.846253,95.5125576 597.673399,106.372744 618.808238,112.588306 C618.808238,112.588306 622.437042,123.681993 642.861099,132.157663 C642.861099,132.157663 648.285738,145.758386 665.699253,153.659431 C665.699253,153.659431 667.15581,164.986618 686.833882,177.523477 C686.833882,177.523477 688.162171,189.827045 705.55819,203.08056 C705.55819,203.08056 707.144714,217.995222 721.884135,229.692905 C721.884135,229.692905 722.481607,245.583947 735.877592,257.994091 C735.877592,257.994091 734.451414,272.917354 747.246529,287.356833 C747.246529,287.356833 746.048207,305.867571 756.186682,317.567142 C756.186682,317.567142 752.557879,331.887039 762.244059,348.608235 C762.244059,348.608235 757.498103,362.580293 765.871184,379.655622 C765.871184,379.655622 759.685414,393.619288 766.683024,411.422601 C766.683024,411.422601 759.813745,419.888201 764.269555,443.640637 C764.269555,443.640637 756.900758,452.605336 759.685561,473.746049 C759.685561,473.746049 751.101427,484.952396 752.333546,503.819993 C752.333546,503.819993 743.018701,514.332341 742.421208,534.393245 C742.421208,534.393245 731.423607,542.504294 729.592316,563.290245 C729.592316,563.290245 719.45382,569.608396 714.368418,590.974637 C714.368418,590.974637 701.816454,599.682129 697.475401,616.869488 C697.475401,616.869488 683.578239,624.157095 677.296173,642.541957 C677.296173,642.541957 665.34338,646.136564 656.029374,664.276596 C656.029374,664.276596 656.029374,664.64812 650.717814,667.259234 C645.404576,669.870958 637.306745,677.771793 631.995185,685.642627 C631.995185,685.642627 630.310771,686.254449 624.86765,688.512397 C619.427906,690.786142 611.686095,696.993522 606.616008,704.879251 C606.616008,704.879251 591.390431,706.184882 579.437219,721.341562 C579.437219,721.341562 566.62532,720.148339 551.305966,735.192569 C551.305966,735.192569 536.794318,733.776021 521.586575,747.014031 C521.586575,747.014031 507.900255,743.530615 491.980471,755.849078 C491.980471,755.849078 477.468824,752.044677 460.689724,762.315133 C460.689724,762.315133 447.990904,756.817277 429.155616,765.749878 C429.155616,765.749878 416.716731,759.557603 397.734796,766.477317 C397.734796,766.477317 385.780115,759.188031 366.19859,764.556675 C366.19859,764.556675 356.789128,756.687939 335.054698,760.155621 C335.054698,760.155621 327.312887,751.206656 304.217105,752.495 C304.217105,752.495 295.293735,741.885097 274.254353,742.481751 C274.254353,742.481751 266.060226,731.260719 246.364363,729.694608 C246.364363,729.694608 236.938117,717.165511 218.344301,714.312106 L218.344196,714.311225 Z M223.333303,756.846921 C218.668328,750.074986 221.017599,732.886369 221.405864,730.047859 C221.810913,727.178089 220.985605,722.856546 220.985605,722.856546 C226.443811,723.824094 230.945147,727.049066 236.840563,730.838152 C242.752973,734.610455 243.25417,753.718265 243.25417,758.990384 C243.25417,764.263132 245.004396,769.633644 245.004396,769.633644 C236.776492,769.230693 227.998299,763.618016 223.332695,756.846081 L223.333303,756.846921 Z M193.435587,739.463825 C189.320691,732.354332 193.013649,715.438237 193.629646,712.599727 C194.245705,709.778629 193.791607,705.409673 193.791607,705.409673 C199.136734,706.779669 203.380023,710.343184 208.966413,714.599901 C214.554691,718.824309 213.533624,737.884916 213.098092,743.171721 C212.676155,748.429363 214.004444,753.878758 214.004444,753.878758 C205.808638,752.880957 197.531643,746.592828 193.435419,739.463195 L193.435587,739.463825 Z M184.687814,736.079431 C176.606766,734.402276 168.84964,727.467605 165.334544,720.065449 C161.820498,712.633923 166.906215,696.054547 167.748222,693.283171 C168.590775,690.542215 168.460137,686.122698 168.460137,686.122698 C173.708758,687.929736 177.627916,691.832657 182.859964,696.492387 C188.07355,701.154006 185.482807,720.083701 184.655778,725.309665 C183.781505,730.531853 184.687877,736.08048 184.687877,736.08048 L184.687814,736.079431 Z M157.446087,704.102658 C156.248102,709.343937 156.749886,715.051797 156.749886,715.051797 C149.039964,713.020258 142.059494,705.635201 139.240914,698.023253 C136.455482,690.478857 142.513068,674.352216 143.517771,671.692031 C144.506131,669.030377 144.715757,664.77429 144.715757,664.77429 C149.509335,666.694931 152.94366,670.628586 157.608216,675.385451 C162.272562,680.125952 158.596408,698.878162 157.446045,704.102028 L157.446087,704.102658 Z M132.050546,681.593879 C130.381846,686.688722 130.317188,692.413786 130.317188,692.413786 C122.851465,689.67262 116.599399,681.67465 114.510063,673.838641 C112.485406,666.06578 120.064564,650.568311 121.312627,648.006729 C122.559222,645.457944 123.190974,641.233536 123.190974,641.233536 C127.77434,643.587632 130.819497,647.81246 134.997541,652.987444 C139.193207,658.196624 133.718533,676.499037 132.050567,681.594928 L132.050546,681.593879 Z M106.054994,667.791334 C98.8798362,664.307918 93.4705125,655.744764 92.1916094,647.746584 C90.91193,639.81512 99.998247,625.141301 101.503937,622.722378 C103.010446,620.302616 104.030274,616.174084 104.030274,616.174084 C108.371118,618.948397 110.995009,623.46337 114.623184,629.010318 C118.283456,634.572372 110.995009,652.263865 108.85763,657.181432 C106.686474,662.098579 106.054785,667.791125 106.054785,667.791125 L106.054994,667.791334 Z M88.0450346,629.946628 C85.4698155,634.68692 84.4004965,640.329534 84.4004965,640.329534 C77.5333155,636.300024 72.803514,627.365535 72.1563001,619.270431 C71.5088764,611.272042 81.7449264,597.340683 83.4295707,595.051833 C85.1298447,592.761514 86.4734692,588.698437 86.4734692,588.698437 C90.5875259,591.825624 92.8224594,596.535495 96.0134233,602.322657 C99.2201217,608.175275 90.5875259,625.238436 88.0452444,629.946209 L88.0450346,629.946628 Z M69.7596155,601.049628 C66.8271176,605.564811 65.2889094,611.096444 65.2889094,611.096444 C58.7460697,606.53259 54.7935542,597.228444 54.8101279,589.118444 C54.8269114,581.121733 66.1473856,568.025774 68.026299,565.898465 C69.8887646,563.739267 71.5730733,559.803955 71.5730733,559.803955 C75.4116707,563.223384 77.2582759,568.093118 79.9625181,574.123851 C82.6839635,580.201578 72.6740712,596.552908 69.7594057,601.050887 L69.7596155,601.049628 Z M48.7361774,580.798022 C42.6785908,575.637723 39.6332238,566.027698 40.411349,557.966161 C41.1885722,549.967772 53.7408088,538.00365 55.7978372,536.036413 C57.8547397,534.068715 59.9118939,530.326665 59.9118939,530.326665 C63.409996,534.102324 64.8023975,539.116606 66.8917341,545.372448 C69.0140083,551.675493 57.4982161,567.010582 54.1614454,571.219046 C50.8097795,575.445132 48.7361774,580.798651 48.7361774,580.798651 L48.7361774,580.798022 Z M34.4504774,548.90097 C28.8794027,543.258356 26.6444692,533.438327 28.1014872,525.456511 C29.5756034,517.538683 43.0673387,506.687098 45.302482,504.897557 C47.5044779,503.106316 49.901582,499.527255 49.901582,499.527255 C53.0596083,503.607115 54.0156387,508.701958 55.5542666,515.120809 C57.1412938,521.585186 44.3628155,535.888299 40.6702346,539.807247 C36.9774439,543.74256 34.4504774,548.90139 34.4504774,548.90139 L34.4504774,548.90097 Z M19.2614052,492.235661 C21.4799748,484.497626 35.9916228,474.966693 38.3572578,473.387155 C40.7537326,471.822744 43.4430795,468.485532 43.4430795,468.485532 C46.1962037,472.854489 46.6663516,478.016465 47.5886052,484.529514 C48.5440692,491.123124 34.43768,504.152579 30.3876104,507.701241 C26.3073305,511.265218 23.2936423,516.166841 23.2936423,516.166841 C18.3053748,510.038554 17.0101078,500.008522 19.2614052,492.235661 L19.2614052,492.235661 Z M13.2850088,458.53648 C16.0387625,450.958098 31.1325882,442.379839 33.6108826,440.959955 C36.0891769,439.573679 39.0051011,436.412883 39.0051011,436.412883 C41.4661923,440.928066 41.5637465,446.120253 42.0819372,452.698758 C42.583722,459.310829 27.6506403,471.404394 23.3752521,474.693541 C19.0832903,478.000521 15.7467295,482.69193 15.7467295,482.69193 C11.1627346,476.242868 10.5639831,466.163954 13.2850088,458.536271 L13.2850088,458.53648 Z M10.0940449,448.506448 C6.15873255,441.637169 6.57999853,431.560143 10.0793594,424.222814 C13.5445238,416.967095 29.4334681,409.918023 32.0573594,408.741709 C34.6806212,407.59571 37.903264,404.742409 37.903264,404.742409 C39.8798154,409.4827 39.4585495,414.644677 39.2963579,421.253602 C39.1348166,427.897772 23.0520228,438.443688 18.4678182,441.298562 C13.8521445,444.151758 10.0941079,448.505609 10.0941079,448.505609 L10.0940449,448.506448 Z M9.85076802,389.690752 C13.9008376,382.725807 30.3237072,377.000744 33.0434742,376.049748 C35.7326113,375.113795 39.1828804,372.534443 39.1828804,372.534443 C40.7531871,377.412569 39.9278582,382.524195 39.2143495,389.094308 C38.4858824,395.681205 21.5769835,404.90479 16.7831948,407.388329 C11.9564685,409.871868 7.8266773,413.887951 7.8266773,413.887951 C4.47417214,406.711114 5.73803302,396.721572 9.8506841,389.690332 L9.85076802,389.690752 Z M12.9124989,355.055891 C17.528802,348.435218 34.3555247,343.985701 37.1248031,343.244709 C39.8951304,342.518802 43.5384098,340.228504 43.5384098,340.228504 C44.7212063,345.203974 43.4737933,350.243431 42.24287,356.724591 C41.0126391,363.262815 23.4235257,371.148755 18.435468,373.229071 C13.4302071,375.316078 8.97586487,379.017911 8.97586487,379.017911 C6.22274065,371.615966 8.26317431,361.715376 12.9118066,355.055262 L12.9124989,355.055891 Z M18.1762257,321.224541 C23.2935165,314.985482 40.4290556,311.865009 43.2486845,311.340734 C46.0664252,310.824872 49.8725046,308.816915 49.8725046,308.816915 C50.6662595,313.871477 49.0140913,318.806667 47.2972855,325.175168 C45.5323531,331.592341 27.3761041,338.083572 22.2248268,339.769055 C17.075018,341.46956 12.3777345,344.823617 12.3777345,344.823617 C10.2080469,337.228452 13.0099901,327.514369 18.1762257,321.223911 L18.1762257,321.224541 Z M27.5863175,287.177103 C33.4494252,281.621972 50.8272763,280.638878 53.7119412,280.469155 C56.5613608,280.316215 60.578283,278.783776 60.578283,278.783776 C60.7404536,283.903795 58.4889673,288.5887 55.9626093,294.698316 C53.4196984,300.8501 34.5678361,305.035906 29.2558567,306.074175 C23.926884,307.131117 18.8253278,309.873541 18.8253278,309.873541 C17.6589162,302.059981 21.6590129,292.796115 27.5873665,287.178047 L27.5863175,287.177103 Z M39.263651,255.338793 C45.4991428,250.180173 62.9095118,250.339826 65.7941768,250.371715 C68.6599603,250.405282 72.7912201,249.140036 72.7912201,249.140036 C72.595902,254.258376 70.004319,258.78195 67.0730799,264.716808 C64.1254768,270.682085 45.0468273,273.624233 39.6530283,274.318231 C34.2758031,275.003795 28.9955026,277.389822 28.9955026,277.389822 C28.3475544,269.53766 32.9803263,260.547575 39.2640706,255.338395 L39.263651,255.338793 Z M53.4192788,223.823566 C60.1406531,219.2916 77.4553562,221.187088 80.2896706,221.476183 C83.1562933,221.792091 87.3670649,220.945195 87.3670649,220.945195 C86.6873959,226.016541 83.6585397,230.264446 80.1275,235.883564 C76.580516,241.536248 57.3061288,242.584798 51.8976443,242.737738 C46.4566417,242.890677 40.965918,244.769276 40.965918,244.769276 C41.1117247,236.868231 46.6339175,228.370742 53.4205376,223.823671 L53.4192788,223.823566 Z M70.7488773,193.741231 C77.8111665,189.741932 94.9129288,192.894336 97.7493412,193.427002 C100.583656,193.942864 104.843309,193.412317 104.843309,193.412317 C103.757375,198.417997 100.420856,202.449185 96.4695989,207.769137 C92.532818,213.131047 73.2118567,212.736215 67.8012742,212.502715 C62.3753768,212.245612 56.7547907,213.704162 56.7547907,213.704162 C57.4997685,205.843397 63.6542799,197.781231 70.7482479,193.741651 L70.7488773,193.741231 Z M90.4768386,165.563824 C97.8292727,162.161178 114.624107,166.748467 117.393385,167.497892 C120.147348,168.247339 124.454415,168.09442 124.454415,168.09442 C122.932697,172.989329 119.304607,176.714638 114.899356,181.68843 C110.493896,186.710894 91.2849644,184.696244 85.9079489,184.002246 C80.5149892,183.316661 74.7983175,184.276132 74.7983175,184.276132 C76.2231532,176.50453 83.0249623,168.998317 90.476419,165.563782 L90.4768386,165.563824 Z M112.696102,138.731195 C120.309099,135.965274 136.650359,141.996007 139.323132,142.972387 C142.011011,143.955397 146.351645,144.172156 146.351645,144.172156 C144.392296,148.922517 140.423921,152.30838 135.598033,156.895731 C130.771517,161.523363 111.8221,157.846789 106.54159,156.710903 C101.229821,155.532973 95.4313294,156.008513 95.4313294,156.008513 C97.5372397,148.389851 104.987857,141.505467 112.696102,138.731153 L112.696102,138.731195 Z M136.698612,114.309097 C144.569866,112.302755 160.247968,119.808842 162.838921,121.04222 C165.413511,122.290724 169.673584,122.895664 169.673584,122.895664 C167.27648,127.444414 163.000462,130.435444 157.769044,134.553907 C152.505107,138.699433 133.993111,133.280207 128.825889,131.643647 C123.675661,129.975073 117.861225,129.911212 117.861225,129.911212 C120.663231,122.52605 128.760643,116.357482 136.697353,114.309265 L136.698612,114.309097 Z M163.487184,91.8233963 C171.520189,90.4942476 186.419746,99.3799597 188.882725,100.830055 C191.345285,102.290282 195.539273,103.281705 195.539273,103.281705 C192.737477,107.603458 188.202364,110.20637 182.631079,113.851117 C177.027696,117.495865 159.06494,110.465255 154.092827,108.368156 C149.072251,106.240847 143.305439,105.6679 143.305439,105.6679 C146.772072,98.5651206 155.388304,93.1476149 163.487184,91.8236061 L163.487184,91.8233963 Z M191.926833,72.1363448 C200.056973,71.5230126 214.116725,81.6739912 216.416065,83.3594747 C218.746875,85.0280488 222.844777,86.3907855 222.844777,86.3907855 C219.654862,90.428687 214.908697,92.6382355 209.013281,95.7519953 C203.100872,98.9026788 185.852044,90.3093144 181.089724,87.777103 C176.279572,85.2448917 170.594998,84.1577401 170.594998,84.1577401 C174.708216,77.384337 183.761448,72.7397118 191.924736,72.1365546 L191.926833,72.1363448 Z M221.889586,54.9294757 C230.002732,55.0991989 242.992746,66.5558293 245.130545,68.4513164 C247.285966,70.3383489 251.221698,72.0723577 251.221698,72.0723577 C247.674085,75.8043798 242.718755,77.5385355 236.546411,80.0774602 C230.343857,82.6415602 214.018752,72.4336226 209.514478,69.450984 C205.013142,66.4683453 199.440179,64.8468489 199.440179,64.8468489 C204.186135,58.4867396 213.661473,54.7446474 221.890215,54.9294757 L221.889586,54.9294757 Z M252.662143,39.5559948 C260.760184,40.2331673 272.875147,52.8678319 274.849937,54.9462592 C276.858398,57.0265327 280.649057,59.0512948 280.649057,59.0512948 C276.826194,62.6943644 271.756107,64.186418 265.423481,66.4515618 C259.041973,68.7334891 243.525203,57.1795144 239.268486,53.8423242 C234.976524,50.4648535 229.550207,48.4569169 229.550207,48.4569169 C234.765472,42.1756901 244.482072,38.8705984 252.663192,39.5562046 L252.662143,39.5559948 Z M286.300483,27.9296412 C294.317544,29.4537303 304.844158,43.3048005 306.594468,45.578336 C308.327826,47.8602633 311.873929,50.2783468 311.873929,50.2783468 C307.581968,53.5112695 302.317611,54.4473695 295.709945,56.0269072 C289.036404,57.6165149 274.946861,44.4897159 271.092739,40.7088118 C267.222673,36.9197257 262.054612,34.3235273 262.054612,34.3235273 C268.048002,28.6389541 278.218596,26.3989855 286.300483,27.929851 L286.300483,27.9296412 Z M319.196153,18.7952185 C327.066358,20.8586875 336.63946,35.3869721 338.209137,37.7983422 C339.765283,40.1677535 343.166145,42.8377994 343.166145,42.8377994 C338.663131,45.7547726 333.349893,46.3430345 326.629148,47.4721448 C319.859521,48.5946046 306.723491,34.548636 303.144828,30.5174479 C299.533018,26.4610845 294.560695,23.527118 294.560695,23.527118 C300.942203,18.2709438 311.225876,16.7065113 319.194685,18.7952185 L319.196153,18.7952185 Z M353.547792,12.482103 C361.240722,15.2715216 369.338763,30.6315757 370.699066,33.1537169 C372.027355,35.6859283 375.137883,38.6366783 375.137883,38.6366783 C370.391928,41.1353226 365.046591,41.2093798 358.261649,41.7168711 C351.394049,42.2075159 339.650421,27.0189262 336.459876,22.6801803 C333.268283,18.3112242 328.587993,14.9253618 328.587993,14.9253618 C335.455593,10.2725546 345.820247,9.67590097 353.547163,12.482103 L353.547792,12.482103 Z M387.672854,9.32134942 C395.026547,12.7728773 401.796174,28.7595855 402.896752,31.3958546 C403.998883,34.0172283 406.849477,37.2333675 406.849477,37.2333675 C401.892469,39.313641 396.580909,38.9338932 389.745407,38.8532275 C382.89459,38.7640651 372.529937,22.6076336 369.72835,17.9967852 C366.924875,13.3842584 362.568716,9.61845942 362.568716,9.61845942 C369.792337,5.55538262 380.190977,5.8545486 387.672644,9.32105571 L387.672854,9.32134942 Z M422.527998,9.6523621 C429.523783,13.8280982 434.577087,30.1542528 435.419409,32.8471662 C436.229549,35.5306389 438.724081,38.973775 438.724081,38.973775 C433.574692,40.4340029 428.32565,39.4661191 421.555814,38.5872928 C414.737095,37.7168793 406.087296,20.8259387 403.803691,16.0365557 C401.472881,11.2073119 397.519946,7.03828921 397.519946,7.03828921 C405.131895,3.93459952 415.466129,5.4352337 422.527369,9.65127117 L422.527998,9.6523621 Z M456.638375,12.5695451 C463.293244,17.1988554 467.099324,33.9349472 467.732272,36.7000296 C468.363499,39.4508461 470.566166,43.0786008 470.566166,43.0786008 C465.318804,44.2145084 460.135638,42.9088776 453.463775,41.6099811 C446.741352,40.3194555 439.387659,22.7916858 437.477066,17.8424399 C435.534439,12.8350811 431.920887,8.40885122 431.920887,8.40885122 C439.745357,5.7404837 449.931266,7.88457648 456.638794,12.5678038 L456.638375,12.5695451 Z M490.713086,18.5599977 C496.917319,23.8027451 499.119944,40.8065338 499.491279,43.6198688 C499.849103,46.3925039 501.712366,50.2151569 501.712366,50.2151569 C496.399128,50.8755459 491.361139,49.0943755 484.819348,47.207343 C478.258886,45.28838 472.591306,27.1640616 471.165128,22.0614564 C469.691704,16.9095497 466.516936,12.1608667 466.516936,12.1608667 C474.55078,10.2335119 484.495217,13.2816692 490.712457,18.5612564 L490.713086,18.5599977 Z M524.401777,27.6136497 C530.00516,33.4360575 530.476147,50.5860724 530.557127,53.4077992 C530.623003,56.2291064 532.079517,60.2046992 532.079517,60.2046992 C526.73439,60.3240719 521.908923,58.0589281 515.608395,55.5114018 C509.258985,52.9473018 505.485004,34.3557935 504.544918,29.1319276 C503.638567,23.8505781 500.966885,18.8113307 500.966885,18.8113307 C509.16269,17.7073536 518.734323,21.7469755 524.400854,27.6146987 L524.401777,27.6136497 Z M556.470859,39.0232863 C561.58815,45.2724147 560.632959,62.3964152 560.454005,65.2265338 C560.308827,68.0310575 561.443057,72.1193095 561.443057,72.1193095 C556.082615,71.8050803 551.449738,69.1601678 545.39383,66.1137518 C539.270578,63.048874 537.067952,44.2238652 536.58186,38.9349631 C536.095768,33.5982281 533.827477,28.3655508 533.827477,28.3655508 C542.104263,27.9152074 551.287567,32.7042966 556.470524,39.0239157 L556.470859,39.0232863 Z M587.795174,53.6322786 C592.394483,60.2747703 590.093885,77.25716 589.737822,80.0600054 C589.349641,82.8578157 590.159781,87.0268384 590.159781,87.0268384 C584.848221,86.2925181 580.424509,83.2931379 574.610283,79.8181131 C568.748644,76.2877028 568.036394,57.3408039 567.972197,52.0267265 C567.904643,46.673208 566.059947,41.2724858 566.059947,41.2724858 C574.319949,41.4740977 583.13024,46.9402755 587.794586,53.6314394 L587.795174,53.6322786 Z M618.227864,70.603759 C622.195905,77.6427611 618.276746,94.346125 617.628693,97.0986198 C616.980577,99.8393662 617.385647,104.080558 617.385647,104.080558 C612.153599,102.838788 608.07248,99.452926 602.59896,95.4284513 C597.091662,91.382158 598.193919,72.4518327 598.646234,67.152441 C599.083361,61.8157059 597.77196,56.2771492 597.77196,56.2771492 C605.999864,57.245033 614.227768,63.5244765 618.227906,70.603759 L618.227864,70.603759 Z M626.86088,74.2164085 C634.975705,75.7892117 642.700732,82.6736167 646.150582,90.0503868 C649.551549,97.3547781 644.368279,113.721423 643.509278,116.423567 C642.636703,119.10704 642.731215,123.33984 642.731215,123.33984 C637.630708,121.735106 633.79274,118.043385 628.673561,113.63247 C623.507179,109.174562 626.050719,90.3726301 626.892957,85.1319807 C627.767231,79.8506312 626.860859,74.2164085 626.860859,74.2164085 L626.86088,74.2164085 Z M654.199112,105.255403 C655.559478,100.095105 655.22022,94.3952167 655.22022,94.3952167 C663.171406,96.7577049 670.16719,104.336087 672.857586,111.995239 C675.546304,119.60551 668.744369,135.399837 667.642322,138.013868 C666.508135,140.601675 666.184087,144.817691 666.184087,144.817691 C661.260856,142.722292 657.811006,138.699474 653.162814,133.78967 C648.431964,128.862872 652.821878,110.399757 654.199112,105.255613 L654.199112,105.255403 Z M678.94639,127.984465 C680.696616,122.945008 680.841772,117.24533 680.841772,117.24533 C688.5668,120.204471 694.948308,128.31552 697.020862,136.167683 C699.0614,143.956068 691.044465,159.161085 689.733044,161.676513 C688.404755,164.168444 687.724583,168.369355 687.724583,168.369355 C682.995411,165.885816 679.884798,161.595952 675.60962,156.346491 C671.334441,151.075212 677.148877,133.006929 678.94639,127.984465 L678.94639,127.984465 Z M704.667112,142.391846 C712.148989,145.947431 717.83524,154.542474 719.274845,162.547577 C720.667268,170.482188 711.468837,184.985025 709.946363,187.387164 C708.423995,189.773359 707.419816,193.8935 707.419816,193.8935 C702.901697,191.047017 700.130321,186.525121 696.309136,180.969991 C692.454175,175.365979 699.74388,157.815048 701.912519,152.960419 C704.099829,148.058796 704.666902,142.391006 704.666902,142.391006 L704.667112,142.391846 Z M722.999944,179.558918 C725.69034,174.907789 726.854906,169.335665 726.854906,169.335665 C733.90146,173.649026 738.677836,182.775057 739.261902,190.879392 C739.812107,198.901278 729.123406,212.412629 727.340998,214.621758 C725.59245,216.855013 724.151083,220.837319 724.151083,220.837319 C719.955207,217.54041 717.688594,212.76823 714.464903,206.833372 C711.226106,200.868095 720.311437,184.169347 723.000154,179.558079 L722.999944,179.558918 Z M741.270258,207.537021 C744.331989,203.117714 745.965654,197.651536 745.965654,197.651536 C752.62388,202.52127 756.624019,212.018636 756.526045,220.128846 C756.461848,228.18283 744.637239,240.751787 742.694758,242.841124 C740.752109,244.904593 739.003646,248.782904 739.003646,248.782904 C735.099803,245.138156 733.238092,240.202967 730.515808,234.019294 C727.761425,227.812124 738.22573,211.904928 741.270468,207.534923 L741.270258,207.537021 Z M762.455238,228.612907 C768.68989,234.006916 771.881483,243.793168 771.103358,251.881139 C770.325275,259.894634 757.513335,271.463923 755.39169,273.368222 C753.287038,275.287164 751.214485,278.987339 751.214485,278.987339 C747.619458,275.052027 746.161181,269.965576 743.990864,263.597075 C741.788239,257.178223 753.547182,242.191812 756.94794,238.071462 C760.365691,233.934537 762.455238,228.614376 762.455238,228.614376 L762.455238,228.612907 Z M776.254636,260.113449 C782.133268,265.893898 784.67492,275.851551 783.378814,283.872598 C782.101149,291.813923 768.593805,302.553059 766.359081,304.334208 C764.139672,306.100253 761.805506,309.672622 761.805506,309.672622 C758.470414,305.518704 757.368367,300.351693 755.587637,293.860462 C753.805334,287.313846 766.487265,273.099686 770.148167,269.197101 C773.840958,265.278572 776.254636,260.111351 776.254636,260.111351 L776.254636,260.113449 Z M792.158685,317.687165 C790.054033,325.450376 775.540707,334.819977 773.144023,336.350843 C770.747338,337.89845 768.090719,341.205471 768.090719,341.205471 C765.174165,336.754276 764.593666,331.514885 763.489731,324.862323 C762.372411,318.179551 776.448485,305.294645 780.465407,301.770318 C784.546526,298.2483 787.461192,293.329894 787.461192,293.329894 C792.740653,299.674898 794.264595,309.832695 792.158265,317.686955 L792.158685,317.687165 Z M798.020324,351.323407 C795.218528,358.893398 779.913859,366.932067 777.388781,368.254607 C774.862234,369.585456 771.913582,372.648739 771.913582,372.648739 C769.40214,367.964043 769.305845,362.692764 768.804647,355.976424 C768.301688,349.219805 783.476578,337.601843 787.785533,334.449481 C792.158475,331.297119 795.510561,326.661096 795.510561,326.661096 C800.190851,333.417715 800.808484,343.68964 798.020324,351.324456 L798.020324,351.323407 Z M801.000865,361.297845 C805.049886,368.449296 804.727432,378.719752 801.260799,386.080788 C797.81095,393.368396 781.82592,400.044454 779.20098,401.148389 C776.576459,402.230527 773.337662,405.051813 773.337662,405.051813 C771.297124,400.148512 771.653249,394.877233 771.751139,388.159215 C771.847224,381.38749 788.012887,371.132349 792.610518,368.391603 C797.243395,365.617289 801.000592,361.297215 801.000592,361.297215 L801.000865,361.297845 Z M808.92163,388.175999 C808.92163,388.175999 810.945281,380.790837 810.362998,373.188958 C809.73177,364.481466 806.475938,355.378932 806.475938,355.378932 C806.475938,355.378932 807.640524,345.268338 806.183968,336.552245 C804.516422,326.723824 800.190578,318.145774 800.190578,318.145774 C800.190578,318.145774 801.194798,310.365781 798.992236,302.182563 C796.70863,293.676683 791.252103,284.758977 791.252103,284.758977 C791.252103,284.758977 791.478261,276.955486 788.593806,268.982272 C785.501864,260.395621 779.233435,251.607568 779.233435,251.607568 C779.233435,251.607568 779.022466,243.641068 775.653723,236.232409 C771.751558,227.581981 764.57682,219.292817 764.57682,219.292817 C764.57682,219.292817 763.619845,211.803598 760.186884,205.755871 C755.182672,196.991105 747.133513,188.648235 747.133513,188.648235 C747.133513,188.648235 745.076107,181.342165 740.298011,174.635896 C734.466792,166.469462 725.690277,158.598628 725.690277,158.598628 C725.690277,158.598628 724.895348,153.608052 720.375361,148.141874 C714.253787,140.739929 703.889133,132.267616 703.889133,132.267616 C703.889133,132.267616 700.844396,125.631837 694.94898,119.90027 C688.663557,113.788767 679.497246,108.554621 679.497246,108.554621 C675.787462,101.275405 670.378138,96.4056709 665.763723,93.1811399 C661.130637,89.9633224 651.576207,85.4733152 651.576207,85.4733152 C651.576207,85.4733152 648.659653,79.7249647 642.455421,75.3946106 C634.860465,70.1149394 623.73447,66.0501843 623.73447,66.0501843 C619.864403,60.6645673 616.007763,58.0280884 609.545275,54.2792827 C603.116563,50.530477 595.568811,49.1928317 594.385574,48.5796044 C593.172042,47.9830976 588.441276,43.2579745 581.867177,39.5897296 C575.259511,35.9214848 561.816343,33.3252863 561.816343,33.3252863 C561.816343,33.3252863 556.228065,27.8909972 548.470939,25.1504606 C539.626871,22.0299874 528.451993,21.5462028 528.451993,21.5462028 C528.451993,21.5462028 523.656946,16.7723446 516.222273,14.7962966 C507.072745,12.3782131 494.894633,12.6773791 494.894633,12.6773791 C494.894633,12.6773791 489.014323,8.19597344 480.786419,6.47020952 C471.392272,4.50251138 459.521718,5.26876231 459.521718,5.26876231 C459.521718,5.26876231 451.600953,1.62401437 443.404938,0.938408183 C434.383804,0.172178235 424.991125,2.39024432 424.991125,2.39024432 C424.991125,2.39024432 418.106741,0.123422152 409.846529,0.00404947171 C400.695323,-0.101896405 390.102833,1.90620803 390.102833,1.90620803 C390.102833,1.90620803 381.439397,0.237612925 373.1945,0.970254884 C364.188472,1.78521994 355.57224,5.02661829 355.57224,5.02661829 C355.57224,5.02661829 346.211659,3.79995385 338.259005,5.19466313 C328.687582,6.86323726 320.199744,11.2421796 320.199744,11.2421796 C320.199744,11.2421796 311.389453,10.7263176 303.745615,12.7897866 C294.611402,15.2582207 286.415387,20.3446717 286.415387,20.3446717 C286.415387,20.3446717 277.1832,20.5462835 269.053061,23.5859861 C260.40494,26.8189088 252.8553,32.9136289 252.8553,32.9136289 C252.8553,32.9136289 245.341325,32.3339057 237.695599,35.8071052 C229.599236,39.5173088 221.339234,47.265414 221.339234,47.265414 C221.339234,47.265414 213.904561,47.8770678 206.989757,51.7317145 C198.339958,56.5779516 189.853588,64.8719402 189.853588,64.8719402 C189.853588,64.8719402 182.369823,67.3235908 175.892229,71.8555567 C168.11832,77.3049511 161.137011,84.9806774 161.137011,84.9806774 C161.137011,84.9806774 154.415427,87.0122158 148.423086,91.9626155 C141.29618,97.8152335 134.721032,106.758114 134.721032,106.758114 C134.721032,106.758114 127.011949,110.239853 120.727575,116.512478 C114.086552,123.148256 108.80751,132.630307 108.80751,132.630307 C108.80751,132.630307 102.166487,136.466597 96.9184948,142.692228 C91.4602891,149.149892 87.3628061,158.001932 87.3628061,158.001932 C87.3628061,158.001932 79.9293917,163.533566 74.9404948,170.570889 C69.5150169,178.238434 66.502168,187.446704 66.502168,187.446704 C66.502168,187.446704 60.1531778,193.114493 55.8125437,200.6677 C51.0353288,208.94008 48.2331128,219.163333 48.2331128,219.163333 C48.2331128,219.163333 42.4023133,224.493354 38.9042113,231.740681 C35.0335154,239.868513 33.4460056,250.043094 33.4460056,250.043094 C33.4460056,250.043094 28.1491314,256.411595 25.2833479,264.161378 C22.1576298,272.601803 21.4447504,282.477218 21.4447504,282.477218 C21.4447504,282.477218 16.4243845,289.541395 14.3184742,297.63566 C11.9528391,306.72141 12.5047856,316.969838 12.5047856,316.969838 C12.5047856,316.969838 8.06638771,323.692891 6.38195317,332.247653 C4.66581879,341.099693 5.70157085,351.790157 5.70157085,351.790157 C5.70157085,351.790157 2.26808529,359.862603 1.50653374,368.286244 C0.69758977,376.97024 2.5436075,386.024102 2.5436075,386.024102 C2.5436075,386.024102 0.0653131717,395.207196 0.00132605833,404.22896 C-0.063919818,413.339886 2.30024668,422.28927 2.30024668,422.28927 C2.30024668,422.28927 0.227420852,430.94809 1.05352596,439.640477 C1.91191833,448.605177 5.70150791,457.601765 5.70150791,457.601765 C5.70150791,457.601765 4.03350023,465.4726 5.45890235,473.758406 C6.99765606,482.724784 11.6291482,492.190052 11.6291482,492.190052 C11.6291482,492.190052 11.1438951,501.23699 13.1844127,508.879359 C15.5974612,517.716294 20.6020926,525.358454 20.6020926,525.358454 C20.6020926,525.358454 20.3754314,534.178605 23.0480787,541.807338 C26.3519117,551.223933 32.7166364,559.834081 32.7166364,559.834081 C32.7166364,559.834081 32.8464988,567.477919 36.069771,574.377408 C40.1343163,583.069795 47.4880091,591.405952 47.4880091,591.405952 C47.4880091,591.405952 48.118922,599.081888 51.9257777,605.870396 C56.7193565,614.431662 64.9474699,622.559704 64.9474699,622.559704 C64.9474699,622.559704 66.3893409,630.42886 70.9563844,636.814145 C76.285357,644.279868 84.8042447,650.439834 84.8042447,650.439834 C84.8042447,650.439834 86.8447832,657.793317 91.5421926,663.549849 C98.0361503,671.450684 107.819465,678.447727 107.819465,678.447727 C107.819465,678.447727 110.13496,684.574546 115.253719,689.655542 C122.12027,696.459575 132.291075,702.732201 132.291075,702.732201 C132.291075,702.732201 135.482878,708.956783 141.410602,713.810573 C149.006397,720.018162 159.80931,725.244126 159.80931,725.244126 C159.80931,725.244126 164.150153,731.918296 170.142075,736.079137 C177.770807,741.36678 187.423211,744.398301 187.423211,744.398301 C187.423211,744.398301 192.201265,751.106458 199.376003,755.396112 C207.944822,760.539418 219.166903,763.42702 219.166903,763.42702 C219.166903,763.42702 224.9998,769.167188 231.929919,772.343886 C240.643915,776.357032 250.912483,778.035383 250.912483,778.035383 C250.912483,778.035383 256.88888,783.534078 264.728665,786.292867 C273.457976,789.386487 284.114452,789.774395 284.114452,789.774395 C284.114452,789.774395 289.815809,794.788468 297.363561,796.900672 C306.723932,799.513654 318.256717,799.352322 318.256717,799.352322 C318.256717,799.352322 323.617159,803.609039 330.499865,804.835703 C340.316117,806.544285 352.65619,805.431727 352.65619,805.431727 C352.65619,805.431727 359.069796,809.189554 366.74762,809.896559 C376.303938,810.802365 387.559586,808.673692 387.559586,808.673692 C387.559586,808.673692 394.344528,811.768571 402.572432,811.897803 C411.674546,812.027036 422.331233,809.155379 422.331233,809.155379 C422.331233,809.155379 431.305163,811.091062 439.386211,810.350658 C448.714483,809.478335 457.349387,805.931142 457.349387,805.931142 C457.349387,805.931142 465.381553,807.834685 473.221338,806.414905 C482.679682,804.706344 492.234322,799.579403 492.234322,799.579403 C492.234322,799.579403 499.620113,800.8029 506.71555,798.934161 C516.319071,796.353278 526.410364,790.483876 526.410364,790.483876 C526.410364,790.483876 535.058484,790.515345 542.540571,787.709563 C551.254567,784.438038 558.996378,778.260869 558.996378,778.260869 C558.996378,778.260869 566.802386,778.165203 574.414335,774.650108 C582.836298,770.747943 591.098188,763.427187 591.098188,763.427187 C591.098188,763.427187 598.776013,762.539634 605.543961,758.621021 C613.934035,753.76828 621.740044,745.721219 621.740044,745.721219 C621.740044,745.721219 629.54773,743.723122 635.394264,739.562302 C643.558181,733.757097 650.56907,725.244503 650.56907,725.244503 C650.56907,725.244503 658.214796,722.85663 664.240075,717.954588 C671.494115,712.053717 677.357643,703.458465 677.357643,703.458465 C677.357643,703.458465 684.907073,700.055819 690.542554,694.477192 C697.42526,687.608123 702.65584,678.32076 702.65584,678.32076 C702.65584,678.32076 709.491342,674.351671 714.951435,667.870511 C720.860488,660.857103 725.461266,651.261974 725.461266,651.261974 C725.461266,651.261974 732.133129,646.761896 736.539848,640.490949 C741.917074,632.910889 745.189647,623.268975 745.189647,623.268975 C745.189647,623.268975 751.4243,618.333785 755.505419,611.304853 C760.541729,602.646033 763.586467,591.552346 763.586467,591.552346 C763.586467,591.552346 769.223627,586.358481 772.494522,579.280667 C776.575641,570.443732 778.5198,559.350045 778.5198,559.350045 C778.5198,559.350045 783.735065,554.125759 786.455881,546.611364 C789.306559,538.742208 789.662579,528.582943 789.662579,528.582943 C789.662579,528.582943 794.796863,521.47345 797.080469,513.184286 C799.737088,503.508806 799.591911,492.431902 799.591911,492.431902 C799.591911,492.431902 803.850305,487.078383 805.227392,479.515107 C806.960751,470.049629 805.890697,457.956694 805.890697,457.956694 C805.890697,457.956694 809.293343,451.314202 810.054475,442.768042 C810.879804,433.673899 809.048556,422.644199 809.048556,422.644199 C809.048556,422.644199 811.917696,415.88758 811.900912,408.519201 C811.868394,398.947023 808.92163,388.175999 808.92163,388.175999 Z"
                      id="Shape"></path>
            </g>
            <g id="mid" transform="translate(82.000000, 67.000000)" fill="#7C2E9A">
                <path d="M479.537191,106.178962 C483.100119,108.034085 487.989574,105.510202 490.031917,103.162756 C490.031917,103.162756 499.748517,103.776089 502.050585,102.752756 C504.317197,101.727746 506.794862,99.4879449 505.547638,97.2379063 C504.317239,94.9878676 502.664861,96.2229658 500.59063,96.0129202 C498.534902,95.8197001 496.057195,95.1895634 494.598918,94.5846229 C493.174439,93.97299 492.121253,91.7230353 491.294246,91.5214234 C490.452029,91.3198116 484.68658,90.2393105 483.683976,90.771977 C482.678056,91.3113779 477.932059,95.2787677 477.349671,97.1572615 C476.7505,99.0274895 475.972438,104.29193 479.536981,106.179025 L479.537191,106.178962 Z"
                      id="Path"></path>
                <path d="M509.856593,74.4938022 C509.856593,74.4938022 513.466725,73.8955961 514.666746,74.4938022 C515.848179,75.090309 519.865017,79.0156981 523.85005,78.2342161 C527.834874,77.4360346 529.43665,75.4766862 529.841762,71.5262687 C530.248531,67.5909563 525.664557,67.1877326 525.664557,67.1877326 C525.664557,67.1877326 518.667094,63.4389269 517.468752,63.0522769 C516.268731,62.657403 515.848472,60.8846873 512.869652,61.4727603 C509.857013,62.0608753 509.661065,62.2709209 508.884828,64.4235103 C508.074688,66.6078835 506.098347,71.5262897 509.856992,74.4938232 L509.856593,74.4938022 Z"
                      id="Path"></path>
                <path d="M498.89109,89.086011 C500.298702,89.086011 505.093644,88.497875 506.876052,88.1097145 C508.690412,87.7148406 509.078678,88.6911161 509.856593,89.086011 C510.665034,89.4892976 511.476873,89.8841715 514.487792,88.3130466 C517.468332,86.7318307 518.05072,83.9675874 514.875973,81.9831477 C511.670953,80.0238623 512.658243,82.9661576 508.690202,80.6136766 C504.67328,78.2341951 504.479221,77.0496993 499.878233,76.2749307 C499.878233,76.2749307 497.692601,74.4937602 496.298521,77.0495734 C494.889231,79.6289883 493.886731,84.1590662 494.889231,86.1183306 C495.89515,88.1095466 497.483332,89.0858641 498.891048,89.0858641 L498.89109,89.086011 Z"
                      id="Path"></path>
                <path d="M594.628399,208.265681 C598.984558,208.265681 602.498604,204.775551 602.498604,200.485687 C602.498604,196.18911 598.984558,192.705693 594.628399,192.705693 C590.287346,192.705693 586.756516,196.18911 586.756516,200.485687 C586.756516,204.775551 590.287346,208.265681 594.628399,208.265681 Z"
                      id="Path"></path>
                <path d="M544.436488,112.878518 L544.435922,112.879294 C546.26547,113.870696 547.787839,113.380051 548.305988,112.694466 C548.79208,112.000468 544.873006,108.574262 543.544717,107.381227 C542.231408,106.196564 540.320942,106.075597 539.137789,105.695828 C537.939425,105.324493 538.231458,104.4541 538.118379,103.010677 C538.003622,101.575477 536.158905,101.762194 535.898971,99.0130557 C535.640714,96.2706309 538.425643,96.2066438 539.493997,96.0774108 C540.596044,95.9563598 542.668681,94.9564825 544.191071,98.4482907 C545.681446,101.955204 548.402158,104.946193 550.184461,105.51079 C551.949876,106.075387 555.821726,108.009539 556.177851,105.075572 C556.566179,102.140137 549.892638,98.5844679 547.269795,97.7711812 C544.711129,96.9561322 544.127147,95.9562549 543.365952,92.8997688 C542.587806,89.8363595 543.99718,87.023549 545.389602,85.885942 C546.768577,84.7584681 552.581334,86.9025609 553.295263,87.0873892 C553.973757,87.2655042 553.229429,89.7003922 554.184725,91.0866887 C555.141805,92.4578381 556.696251,92.5216784 558.218641,93.3937913 C559.724226,94.2708133 561.00357,96.077264 561.619608,95.9562129 C562.265983,95.8268331 563.546984,94.6505821 565.685413,94.3279612 C567.839156,94.0204034 569.926814,95.0773866 570.105768,96.4569488 C570.299869,97.8348746 569.393539,101.39046 569.393539,101.39046 C569.540395,102.640621 572.826395,107.009578 575.288955,110.193828 C577.751305,113.379757 582.67462,117.249572 583.937076,117.998997 C585.20123,118.739989 584.521058,121.053847 583.516817,122.248581 C582.497429,123.441636 581.216428,124.925382 576.293196,123.618073 C571.369965,122.303924 565.248307,111.815262 564.664325,110.944848 C564.114036,110.074414 562.883658,109.629126 561.521614,110.694459 C560.113939,111.758114 560.615262,112.630248 562.316564,114.379488 C564.016314,116.13714 568.340332,120.376653 569.587598,120.56316 C570.867005,120.747989 572.439955,123.182856 572.504152,125.819334 C572.568349,128.43903 571.30581,130.253851 568.713388,130.689068 C566.120903,131.124391 564.858447,129.302835 564.517511,128.173641 C564.212052,127.069706 560.355496,123.384677 560.114149,123.240129 C559.86932,123.119078 557.457572,120.0559 556.323385,120.748198 C554.428065,121.433805 555.04402,121.739474 558.154633,125.553945 C561.263567,129.383312 577.231667,146.170174 577.557414,146.233951 C578.44673,146.112963 579.69408,146.862388 580.796211,147.242157 C581.864586,147.611814 581.670526,151.732122 581.491572,153.167154 C581.282408,154.602144 578.446898,158.803013 577.685703,158.480392 C576.924361,158.157708 572.178426,156.996604 570.299911,156.230353 C568.389319,155.48097 564.406174,148.861975 561.749555,145.113169 C559.108251,141.364364 557.457593,140.992987 554.687895,141.557584 C551.903092,142.113537 539.187279,158.618017 536.709614,162.906202 C534.248942,167.227955 533.308814,168.663029 531.477566,169.662822 C529.647954,170.654308 527.735642,168.905047 526.166006,165.236802 C524.577867,161.528277 529.517966,156.351048 530.101948,155.416773 C530.652027,154.480673 529.890895,153.472614 525.274802,147.362788 C520.658709,141.242893 514.488043,136.180002 511.620581,135.244049 C508.788575,134.308096 501.823001,136.122875 497.838177,135.558278 C493.855031,135.002115 489.497068,129.302226 488.995787,125.923077 C488.492702,122.570761 490.518114,121.683543 491.782269,120.819843 C493.044808,119.932625 494.43723,118.739569 495.635552,119.932625 C496.835572,121.118883 502.211329,122.738827 505.450126,122.634559 C508.658712,122.488375 512.77172,121.182744 516.366747,120.513964 C519.995551,119.813252 522.618393,118.312786 525.210815,116.563546 C527.80158,114.814285 526.27919,112.999485 525.728964,112.18452 C525.145108,111.379751 521.291783,109.322911 520.285863,109.000269 C519.283238,108.69439 517.953166,105.82441 517.824982,102.510717 C517.695119,99.1970239 519.217509,98.2611336 520.658877,98.1400826 C522.133937,98.0207099 525.664809,99.6405909 527.121365,100.825234 C528.579642,102.018331 530.910451,104.075129 533.373011,105.323633 C535.835571,106.565402 542.588372,111.878703 544.436488,112.878518 Z M550.735337,129.922377 L550.735631,129.922377 C550.428493,127.665625 548.112873,125.334983 546.671505,124.133536 C545.230012,122.932257 540.273025,117.0711 539.332918,116.667814 C538.460385,116.281226 536.742111,115.563816 535.479635,116.361997 C535.479635,116.361997 533.567406,116.98198 533.535308,118.724485 C533.503251,120.465354 534.296503,122.165859 535.349688,123.456385 C536.385944,124.738477 536.742069,124.714959 538.134492,125.020775 C539.543677,125.335004 541.925256,126.536452 542.524427,127.117853 C543.123577,127.697514 543.690671,129.221666 544.063684,130.100492 C544.419704,131.002815 546.588532,133.550195 548.208791,133.333415 C549.828986,133.091522 551.061063,132.204304 550.735337,129.922377 Z M539.675217,147.256801 L539.675427,147.256801 C540.711809,146.515599 543.967431,144.346331 543.057723,140.807529 C542.151204,137.292245 539.172342,134.171835 534.895485,136.211786 C534.895485,136.211786 532.304636,137.606495 531.946833,140.105139 C531.590813,142.597133 533.437166,143.274327 534.119038,143.943107 C534.816183,144.61193 536.709782,146.660252 536.969716,147.450021 C537.227973,148.265007 538.654109,147.959169 539.675217,147.256801 Z M528.789016,131.390934 L528.789163,131.390934 C530.102263,128.818232 529.145183,125.383593 524.221952,126.536305 C524.221952,126.536305 520.578001,128.46366 520.17461,129.70545 C519.752672,130.953933 519.897808,134.074406 521.648054,134.074406 C523.430253,134.074406 527.477595,133.97874 528.789016,131.390934 Z"
                      id="Combined-Shape"></path>
                <path d="M124.114581,124.069549 C124.472405,121.43307 127.905345,120.868515 127.905345,120.868515 C130.188951,120.303918 132.246399,120.513964 132.246399,122.738743 C132.246399,125.003887 129.022707,127.237142 126.950154,127.237142 C124.86067,127.237142 123.726462,126.674223 124.114581,124.069675 L124.114581,124.069549 Z"
                      id="Path"></path>
                <path d="M104.112629,88.1990027 C106.703373,87.9183825 107.903393,87.6512101 107.368419,88.5854849 C106.818193,89.5382425 105.861218,93.9390034 108.16167,93.9390034 C110.494158,93.9390034 113.732955,93.8198406 114.121283,94.0852297 C114.543241,94.342332 115.613295,95.9554577 116.308593,98.6323009 C116.988787,101.30906 117.378647,104.251418 116.308593,105.856131 C115.223351,107.460865 86.3794079,142.540678 86.3794079,142.540678 C86.3794079,142.540678 84.4516126,143.459826 83.1238275,144.007619 C81.7629789,144.531894 80.8070744,145.47626 80.8070744,148.01531 C80.8070744,150.562627 80.6621069,153.9166 83.8035595,154.449267 C86.913543,154.973542 89.8940837,155.101243 91.6427151,154.835749 C91.6427151,154.835749 101.943172,160.335494 103.968521,163.407295 C106.025927,166.4856 107.222633,168.493746 109.119589,168.236539 C111.013293,167.962632 112.21153,167.559345 111.838517,162.34364 C111.435125,157.117676 106.81899,154.304761 105.070568,153.103482 C103.303475,151.902034 96.5185332,147.894301 95.7253028,147.482686 C94.8982955,147.081098 95.4333117,144.007661 96.6637105,142.799668 C97.8789202,141.606613 105.86212,129.141881 107.369279,129.286219 C108.859591,129.424054 109.264661,130.487666 108.97267,131.542971 C108.712757,132.625109 108.437654,138.647429 111.953211,138.244205 C115.484041,137.857723 115.354178,137.178851 117.264771,133.962733 C119.143265,130.746594 121.993943,128.876282 122.934029,130.608759 C123.872437,132.357999 124.974547,135.172614 123.872437,136.639492 C122.804062,138.114825 117.524705,144.412773 116.164402,145.081595 C114.804036,145.741984 111.838664,148.418786 113.053789,149.885664 C114.253789,151.360997 116.714691,153.642861 119.695232,152.844806 C122.674094,152.031519 123.759358,149.885664 125.654845,147.346739 C127.53336,144.814528 132.004255,135.970879 134.302966,135.172614 C136.635453,134.374432 140.151178,133.962754 140.684474,137.857765 C141.366346,140.259065 127.275083,153.369081 127.275083,153.369081 C127.275083,153.369081 125.507968,156.707949 132.554544,158.319375 C132.554544,158.319375 137.705611,154.18392 139.746276,153.248029 C141.786814,152.312076 143.518578,151.233296 145.1556,149.885664 C146.775879,148.563229 151.245075,138.388753 148.944686,135.172614 C146.644297,131.956475 144.603632,127.537168 145.025737,124.603202 C145.430807,121.650773 148.264534,121.249228 149.091541,121.119785 C149.901681,120.990552 153.673858,116.700478 153.673858,113.628887 C153.673858,110.548694 151.390252,108.00977 149.091541,108.130821 C146.775837,108.275369 144.895665,111.879626 144.200408,112.953351 C143.518558,114.032132 143.130355,118.048194 140.944618,117.765811 C138.774091,117.500317 138.515835,115.2336 137.834005,112.953351 C137.1707,110.678137 136.895598,108.130821 133.915057,108.130821 C130.902418,108.130821 126.853397,110.412748 123.356344,114.959819 C119.823836,119.50689 117.913243,122.18365 117.104698,123.522763 C116.309747,124.868738 113.864223,126.473513 112.520703,126.199523 C111.14347,125.923938 112.098745,123.932701 112.908885,122.586873 C113.734214,121.249312 131.064441,100.373904 131.599416,99.9627083 C132.16653,99.5779045 136.215509,96.6255181 139.324443,97.6908511 C142.450162,98.7713312 143.243392,100.374324 144.603905,101.84309 C145.965949,103.326836 149.091814,106.124562 150.435124,105.857495 C151.795469,105.583609 156.006408,102.108689 155.051217,99.2957738 C154.095921,96.4895717 150.857019,93.4095888 148.944749,91.9425006 C147.034156,90.4822937 144.767544,87.9197042 144.200471,86.0479238 C143.665455,84.1861086 143.405521,83.2434001 141.366576,83.3795563 C139.32436,83.5157125 134.466878,84.5726117 133.656864,85.6614836 C132.846724,86.7167465 126.335269,94.8915723 126.335269,94.8915723 C126.335269,94.8915723 125.655076,96.625686 123.872709,92.2164913 C122.124162,87.7887929 118.885281,83.1055656 117.379801,82.4436661 C115.889488,81.7664936 114.6743,81.7664936 113.167141,81.2355055 C111.693696,80.6860135 111.435461,79.3652775 111.693696,78.1639142 C111.95361,76.9456625 109.523169,74.9460967 108.309722,74.6804977 C107.094533,74.421717 103.821813,73.7462229 101.134983,77.8815317 C98.4124888,82.0337709 96.5188898,85.2499101 98.4124888,86.5974158 C100.292682,87.9198301 101.5552,88.4676437 104.113845,88.2004503 L104.112629,88.1990027 Z"
                      id="Path"></path>
                <path d="M69.1609792,123.683528 C70.9424224,124.649734 75.9958519,128.504381 78.5870153,130.487352 C81.1945426,132.463442 84.4828509,135.783806 86.3456101,136.212205 C88.1760192,136.63901 90.6688313,135.308162 91.8671735,132.624731 C93.0503267,129.956364 94.4595957,123.851573 94.184556,121.215094 C93.9246425,118.587007 92.4022527,118.232456 90.8326802,118.33001 C89.2596672,118.434277 88.4022189,120.966489 87.9482251,122.093921 C87.5279661,123.214723 85.9566314,124.118746 84.9683137,123.634814 C83.9966537,123.150862 84.2233359,120.966447 84.6446019,119.716286 C85.0976097,118.498034 86.4425978,116.474971 85.9078963,115.765868 C83.8351334,113.299112 82.4421025,113.483941 80.5306711,113.751134 C78.6523451,114.031733 77.2916644,117.765539 76.060804,118.31331 C74.8457832,118.845977 75.2505174,117.103471 75.8017297,115.354169 C76.3357598,113.628468 76.8711117,111.210531 76.7411654,109.735051 C76.6115128,108.274823 73.2099159,107.332073 73.2099159,107.332073 C73.2099159,107.332073 70.2465783,106.888464 68.934318,108.372209 C67.6389251,109.87276 65.5331406,116.563819 65.37097,118.918125 C65.2094288,121.280613 67.3640742,122.722526 69.1613149,123.683591 L69.1609792,123.683528 Z"
                      id="Path"></path>
                <polygon id="Path"
                         points="39.9094277 273.031549 47.683757 275.659636 56.5913926 244.941626 48.9955978 243.04788 45.5778467 252.617415 14.0919911 243.442712 10.8852926 253.738134 42.5326895 263.106057 39.9087983 273.031822"></polygon>
                <path d="M53.2554612,206.153477 C57.6112003,206.153477 61.1265055,202.663347 61.1265055,198.373483 C61.1265055,194.068514 57.6112003,190.585098 53.2554612,190.585098 C48.9146173,190.585098 45.384207,194.068514 45.384207,198.373483 C45.384207,202.663347 48.9146173,206.153477 53.2554612,206.153477 Z"
                      id="Path"></path>
                <path d="M205.370662,57.3278429 C208.739531,56.7481197 212.157282,51.4179512 215.946368,48.6623094 C219.737133,45.887996 226.734805,41.1544182 227.932938,42.9290641 C229.114392,44.7119129 231.122853,55.1518615 227.122798,63.850962 C223.120981,72.5097821 217.939494,76.6620213 214.537057,77.2500733 C211.153083,77.8466011 206.764826,81.2021692 207.152945,83.1767486 C207.574882,85.1528385 209.35557,91.07108 209.954741,92.6422259 C210.553912,94.2217635 211.558153,96.0045914 217.551375,94.8182074 C223.510988,93.6268302 229.114371,91.07108 230.928668,86.1191068 C232.72616,81.202379 236.499952,75.2759135 237.504235,57.9102306 C236.499994,46.0822651 243.691684,52.7986043 243.691684,52.7986043 C243.691684,52.7986043 267.855736,70.1481331 278.028638,70.3583465 C288.231331,70.5599584 294.030451,68.1890785 299.018509,56.1357945 C300.606711,52.3869888 298.014268,52.2021605 296.427765,52.5969924 C294.807486,52.9851529 269.055966,49.8243574 253.281569,43.9146754 C237.505914,38.0049934 244.11358,34.8425615 246.494949,34.2475862 C249.296746,33.2544852 264.262178,30.3055605 265.654579,29.3207883 C267.06389,28.3377994 271.063903,23.992445 268.861487,18.6624233 C266.658862,13.3324017 266.270744,13.9288455 262.479979,14.727111 C258.658795,15.5017536 246.900061,18.2675914 244.891495,19.8404156 C242.883013,21.4199532 240.098126,24.1858749 237.910816,24.3858084 C235.723505,24.5723151 232.516597,25.7804967 231.318255,22.8062708 C230.119913,19.8404156 229.925832,10.7783718 227.529169,10.7783718 C225.130806,10.7783718 220.921503,11.7529899 218.750976,15.8883197 C218.750976,15.8883197 221.130667,26.1518527 221.729838,28.9261661 C221.729838,28.9261661 221.940807,30.8938433 216.352613,33.6580656 C210.766014,36.4239873 202.764268,40.1660795 200.578636,40.9624568 C198.376011,41.7454913 194.975253,45.6960347 195.589529,48.8483965 C196.173511,52.0007584 201.971037,57.9104403 205.372005,57.3291017 L205.370662,57.3278429 Z"
                      id="Path"></path>
                <polygon id="Path"
                         points="593.699013 255.050121 612.649478 259.550199 597.861112 272.658536 600.907528 284.276498 622.33377 263.855168 637.721308 260.106362 634.853846 249.059669 619.857784 253.179809 591.235614 244.747776 593.698174 255.049911"></polygon>
                <path d="M93.5295797,102.194348 C95.5532509,100.389639 99.7000354,102.001128 100.154239,103.121888 C100.574498,104.234278 99.8791154,105.943196 99.1179205,106.314531 C98.3550472,106.6943 96.5592751,106.75814 95.3271561,106.106206 C94.0967573,105.460964 93.1887277,102.508661 93.5296636,102.19439 L93.5295797,102.194348 Z"
                      id="Path"></path>
                <path d="M82.4350534,104.274601 C83.8926169,104.274601 87.585072,104.814001 88.1032627,105.089587 C88.6534889,105.355081 89.0433698,107.862222 89.5277627,108.677061 C90.0155333,109.475221 90.9218636,111.523543 92.2821457,111.458088 C93.6424907,111.402702 95.5868179,111.143858 96.137107,111.740386 C96.6873333,112.321788 99.1818447,116.166406 100.412285,117.142787 C101.659573,118.110671 104.20305,117.514143 104.365011,116.013593 C104.526971,114.514721 103.716895,110.17608 105.109317,109.377814 C106.535495,108.564527 108.704344,107.927677 110.2757,107.660484 C111.847013,107.39499 112.54399,106.427106 112.268972,104.556794 C112.009058,102.686566 111.036895,102.194306 109.580254,102.355638 C108.105131,102.508577 106.6637,103.210925 106.162503,102.735385 C105.676411,102.243041 104.851082,100.969341 104.137154,99.7359632 C103.456981,98.4941936 101.98362,97.696033 100.736186,97.696033 C99.5057873,97.696033 97.9343897,97.5917655 97.1090608,96.2526096 C96.298921,94.9066564 95.9107395,94.2227496 95.7487157,92.9305246 C95.5867549,91.65009 95.9748735,89.1328369 93.5781889,89.0841648 C91.2136029,89.0285694 88.8811152,89.7294066 88.10299,90.8989232 C87.3586835,92.0852653 88.9300182,93.8983454 88.394981,94.9703918 C87.8430764,96.027333 87.034636,97.4858196 85.9494145,97.8168743 C84.8635007,98.1227117 82.3701222,98.447011 81.6574527,98.2756094 C81.6574527,98.2756094 79.5194439,100.21979 79.6650198,101.387691 C79.8431348,102.574012 80.944867,104.274454 82.4349276,104.274454 L82.4350534,104.274601 Z"
                      id="Path"></path>
                <path d="M348.350182,50.997881 L348.350979,50.9978391 C345.127287,50.014955 340.933173,47.4506452 341.743313,43.7102313 C342.553327,39.9444533 346.342413,39.364772 348.545038,39.5579922 C350.73067,39.759604 362.312338,42.7019203 365.519036,42.9119659 C368.693741,43.1135777 368.10978,41.340778 368.10978,40.1477226 C368.10978,38.9614015 363.704634,40.9442048 361.696173,40.5409181 C359.721489,40.1477645 356.723997,36.1954589 357.71135,32.2534331 C358.717101,28.3196942 363.898694,29.3026831 365.908833,29.3026831 C367.915511,29.3026831 371.512195,30.6721122 373.503789,28.5045225 C375.495466,26.3369748 374.297124,26.1336426 372.094499,25.9488143 C369.891958,25.7623076 369.697856,26.3369328 368.303734,22.9896725 C366.911312,19.6188943 368.693615,17.8629411 368.693615,17.8629411 C368.693615,17.8629411 376.305543,18.6442972 377.697966,16.8782528 C379.090367,15.0886906 372.094478,15.0886906 370.312175,15.0886906 C368.499556,15.0886906 365.307963,14.2989218 365.307963,14.2989218 C362.506292,10.3633996 363.704571,7.59768777 365.518931,4.84183622 C367.30113,2.07597751 375.495403,3.44714793 377.083606,3.44714793 C378.68706,3.44714793 380.482895,4.84192014 383.075317,2.26082684 C385.667739,-0.303399033 388.258462,0.891334781 389.650884,1.48786251 C391.060111,2.07591457 390.26686,5.22833937 392.064352,6.42137385 C393.861866,7.59762483 397.068774,7.99419808 399.855256,8.38068024 C402.657052,8.7755122 406.640197,11.9363288 409.637731,11.5347205 C412.616803,11.1382101 414.221831,7.59772973 415.629443,6.00980035 C417.023732,4.4302837 418.02619,5.22844427 420.002595,6.42147875 C422.011056,7.59779267 420.812714,14.1141983 420.812714,14.1141983 C425.217964,14.8954705 430.012865,18.0629795 431.989269,19.6189782 C433.995989,21.2169777 432.79771,24.7557378 431.211186,26.7385411 C429.590948,28.7061973 421.006836,24.3675144 419.614413,23.9742978 C418.222012,23.5693958 418.804399,26.5301319 421.817038,27.311488 C424.829783,28.1096696 425.412065,29.1010712 425.412065,29.1010712 C425.217796,33.2363171 420.812755,35.9955253 420.812755,35.9955253 C422.821342,36.9935145 424.198576,40.1475757 424.620513,41.7270924 C425.006953,43.3001264 425.802009,44.493056 427.388533,45.8709398 C429.007197,47.2505439 429.396994,49.6115635 426.207079,51.797615 C423.015486,53.9569179 420.423063,50.9977761 419.224721,50.9977761 C418.026379,50.9977761 414.627132,49.2250813 413.832181,51.5875695 C413.023636,53.9569808 413.832181,54.5383824 416.019491,55.7314169 C418.222117,56.9175911 426.01281,59.0853906 428.814606,59.2870025 C431.599619,59.4886353 433.413916,59.6734846 435.778502,60.8681975 C438.175187,62.0445114 443.778549,65.205265 442.580227,68.767564 C441.381885,72.3080444 436.392778,74.8807459 433.802035,75.073966 C431.211291,75.2587944 422.627157,72.3080444 415.629694,67.3728547 C408.650693,62.4393433 397.651434,60.2700753 396.259012,60.0684634 C394.834407,59.8836351 393.651275,61.2548684 393.651275,62.641165 C393.651275,64.0207691 397.651413,65.9950967 402.056454,67.9711866 C406.429606,69.9288147 412.22879,70.7269752 413.832181,71.1235485 C415.435635,71.5099887 420.618759,72.904698 419.015347,76.6451119 C417.411893,80.3938966 414.43303,78.9992712 405.848897,78.2179151 C397.264973,77.4196497 393.264835,74.0825014 392.064814,73.6943409 C390.881787,73.299509 389.261486,71.9215832 388.258944,76.4434791 C387.271655,80.983627 385.668264,83.9512234 384.680911,85.1358662 C383.658166,86.3037044 380.096853,86.3037044 379.285014,84.5309257 C378.476574,82.7648814 381.067317,70.7269123 381.067317,70.7269123 C368.303252,64.0206432 356.934399,66.1882959 355.120018,65.793401 C353.322505,65.4069608 349.320772,63.4225211 349.531741,60.2701592 C349.710485,57.1177974 357.518171,56.3196368 364.709903,57.1177974 C371.898069,57.8923561 377.293966,60.6666066 380.676262,61.0682149 C384.078908,61.4565432 387.867973,59.4886773 387.270501,57.1177974 C386.669651,54.7400152 370.490562,52.7807298 368.49899,52.7807298 C366.488745,52.7807298 351.524992,51.9825693 348.350182,50.997881 Z M375.202321,43.516214 L375.2023,43.5161301 C374.165919,44.7495079 378.247038,45.3309095 378.247038,45.3309095 C378.247038,45.3309095 384.581343,46.562609 387.447126,45.3309095 C391.302046,43.144858 392.549312,31.2042332 392.696168,29.4381889 C392.873443,27.6738229 389.438699,27.5040997 389.438699,27.5040997 C384.628546,26.7546743 383.008225,26.7546743 382.085006,28.4719835 C381.163592,30.1893557 383.219298,31.7941105 384.468264,32.6561113 C385.713852,33.4946572 385.713852,35.3244789 384.9206,37.7274572 C384.078278,40.1471142 380.255478,41.380492 378.782033,41.6459861 C377.306973,41.9198719 376.240318,42.2895496 375.202321,43.516214 Z M389.259976,17.264714 L389.25985,17.264693 C389.25985,17.264693 389.001573,17.8948297 389.455587,18.2493813 C389.455587,18.2493813 394.07189,21.0135826 397.843983,21.4017431 C401.634748,21.8134215 402.866825,22.384732 404.22717,22.384732 C405.65167,22.384732 407.239935,21.2168309 403.837289,19.6188104 C400.43821,18.0628746 391.270136,14.8955125 389.259976,17.264714 Z M410.965244,31.3108295 L410.965181,31.3108085 C409.652081,30.9395364 404.615813,29.5934993 402.995533,30.8335905 C402.995533,30.8335905 399.756736,37.3569194 399.044486,39.5580761 C398.364314,41.750841 396.938135,46.3634308 397.522097,47.3699585 C398.119589,48.3949901 399.918781,49.9913323 402.411551,49.9913323 C404.890895,49.9913323 407.952521,48.7007436 408.308646,47.4186307 C408.696827,46.1449725 407.984577,44.314983 406.754178,43.7419941 C405.490045,43.1453405 405.165976,41.2752175 405.716202,40.2350807 C406.251177,39.2268746 408.048711,38.905932 409.506967,38.2606692 C410.965244,37.6155532 413.685892,36.4543864 413.944106,34.8429181 C414.221034,33.2365059 412.259776,31.6889199 410.965244,31.3108295 Z"
                      id="Combined-Shape"></path>
                <polygon id="Path"
                         points="609.795233 287.645304 602.021324 288.571187 604.660949 319.320666 612.839971 318.739265 612.274556 308.437129 645.086308 305.066372 644.309945 294.392902 611.107976 297.946809 609.794877 287.644674"></polygon>
                <path d="M515.308295,539.355922 L507.500609,545.579875 L523.583402,566.122046 C529.284759,573.846655 524.069495,578.280857 518.498,577.797072 C515.777394,577.538459 513.81771,575.37731 513.81771,575.37731 L496.762732,555.238363 L488.988822,561.769874 L508.715734,585.407343 C512.050827,589.181534 514.44919,589.47042 518.174079,589.003838 C525.413014,588.116264 534.144003,582.183232 536.086484,574.863316 C538.160779,567.10514 531.681444,558.930315 531.681444,558.930315 L515.308295,539.355922 L515.308295,539.355922 Z"
                      id="Path"></path>
                <polygon id="Path"
                         points="376.718501 610.337561 365.332781 621.78601 370.8384 627.589746 377.657119 621.39957 383.164416 649.520333 392.848918 648.19838 384.685002 608.853648 376.718711 610.337226"></polygon>
                <path d="M309.990012,618.625046 L309.989844,618.624879 C314.11823,623.220832 313.583193,628.122035 313.730048,631.33188 C314.086069,639.347053 310.506357,647.312295 307.284343,649.617509 C298.587131,655.841399 286.310207,651.326091 286.342305,650.906 L287.054534,644.264137 C290.553266,646.101952 293.695977,646.52091 296.627636,646.359369 C300.043708,646.199716 302.474212,644.973052 303.930768,640.523325 C306.717459,632.07304 302.764524,638.587767 296.56197,638.428114 C293.954233,638.345455 290.747535,637.329424 287.800561,633.106274 C286.423244,631.139248 286.374362,628.946063 286.40646,626.687423 C286.536532,620.172695 291.525639,613.658094 299.26745,614.078185 C302.570444,614.271195 306.749537,615.029181 309.990012,618.625046 Z M303.802563,629.50852 L303.802479,629.50852 C304.612619,627.557857 304.335859,626.203659 304.303761,625.976641 C303.70459,621.754079 301.534063,619.979895 299.120595,619.884019 C294.391423,619.658701 289.743231,629.073408 297.096924,632.427591 C300.854121,633.461455 302.975556,631.493526 303.802563,629.50852 Z"
                      id="Combined-Shape"></path>
                <polygon id="Path"
                         points="341.637409 614.657845 328.727537 624.590114 333.667762 631.155192 341.053553 625.526004 342.932047 654.939097 352.245214 654.196721 350.154052 614.092535 341.637472 614.657132"></polygon>
                <polygon id="Path"
                         points="408.202888 618.786378 411.993653 628.139196 442.701174 617.092922 439.300206 607.53115 408.202469 618.786378"></polygon>
                <polygon id="Path"
                         points="604.485981 337.851481 645.641234 337.851481 645.641234 326.628351 604.664306 326.628351 604.48703 337.851481"></polygon>
                <path d="M630.093414,344.996219 C627.339031,345.429737 623.322109,348.541735 622.05957,354.170922 C618.351464,370.520784 612.17933,365.746925 610.965673,359.458985 C609.861843,353.653361 612.32434,348.284737 612.32434,348.284737 L604.341056,347.978921 C603.919118,350.768339 603.174812,355.137086 603.206868,360.136263 C603.529238,363.812899 604.049065,369.504186 609.684672,373.745377 C613.345574,376.487802 625.070531,379.260227 628.213242,365.232784 C631.404835,351.074219 638.093482,354.476865 639.275041,360.361371 C640.328226,365.729995 638.385578,372.471719 638.385578,372.471719 L646.093612,373.261488 C646.643838,373.326944 646.82273,369.956186 646.449737,357.652828 C646.063234,344.300711 632.959156,344.527708 630.093372,344.996387 L630.093414,344.996219 Z"
                      id="Path"></path>
                <path d="M622.06964,390.458539 L622.069199,390.458203 C622.400044,389.856661 623.632163,388.656892 626.076052,388.144387 C632.425461,386.774916 643.794398,386.112849 643.794398,386.112849 L641.478694,397.191431 C641.478694,397.191431 641.203444,397.127569 631.129145,397.512373 C628.958619,397.609843 627.080041,397.707293 625.896888,398.448326 C622.528019,400.577524 622.479137,404.706056 622.479137,404.706056 L638.286891,409.526908 L634.982219,420.024152 L595.36895,409.622784 C594.947076,409.510125 594.6871,408.671579 595.109037,405.771389 C595.529254,402.787072 596.74438,397.60999 600.258426,388.773055 C604.096394,379.164918 612.309193,378.85736 617.102562,382.034898 C620.935453,384.577389 622.025793,389.174768 622.06964,390.458539 C621.971876,390.634975 621.943134,390.766096 621.993695,390.806377 C622.050759,390.843343 622.078032,390.70555 622.06964,390.458539 Z M615.305048,400.352415 L615.304964,400.352415 C617.038281,395.434009 612.341207,390.290515 608.164003,392.224583 C603.951364,394.192239 603.045033,401.99573 603.045033,401.99573 L613.377589,404.576823 C613.377589,404.576823 613.573368,405.285926 615.305048,400.352415 Z"
                      id="Combined-Shape"></path>
                <polygon id="Path"
                         points="574.505186 459.852039 598.054542 483.47692 565.792449 476.898416 560.31725 486.652779 602.783714 494.15039 609.619216 482.3476 579.832691 450.112781 574.504347 459.852039"></polygon>
                <polygon id="Path"
                         points="617.005217 447.306578 608.097162 443.357839 614.152861 427.989393 607.351135 425.376411 601.067391 440.921294 592.905153 437.552215 598.994628 421.637676 592.353185 418.638254 581.924335 445.244305 620.404716 460.239738 631.030983 432.859547 624.197159 430.053345 617.005427 447.305529"></polygon>
                <polygon id="Path"
                         points="551.199192 499.035439 584.755712 522.802981 591.024142 514.192833 557.450837 490.391724 551.199192 499.033761"></polygon>
                <polygon id="Path"
                         points="540.20159 513.45289 563.32926 534.059048 530.15876 524.31979 520.845593 534.638708 551.94333 561.98743 558.37372 554.667724 535.243952 534.253107 568.269695 543.799145 577.000684 533.705336 546.647715 505.95381 540.20201 513.4531"></polygon>
                <path d="M25.3744926,307.196933 C30.1206581,293.44327 36.3880385,297.59551 36.9068586,303.568969 C37.3598664,309.020042 34.6396168,315.494488 34.6396168,315.494488 L42.2517756,317.163063 C42.7707845,317.275722 43.3528994,313.945245 44.3247273,301.698741 C45.4263336,288.363407 32.3717247,287.130029 29.4885283,287.274577 C26.6873613,287.395628 22.3630912,290.032107 20.483968,295.466186 C14.9768804,311.316948 9.34055977,305.875946 8.8546773,299.497374 C8.40183735,293.612868 11.4624144,288.573411 11.4624144,288.573411 L3.54290771,287.348445 C2.84601462,290.063807 1.59925193,294.345489 1.08118709,299.304175 C0.999996883,302.989204 0.886498429,308.697274 6.03693657,313.558616 C9.34055977,316.694194 20.6950206,320.750558 25.3744716,307.196828 L25.3744926,307.196933 Z"
                      id="Path"></path>
                <path d="M40.3132807,433.696939 L33.899674,435.938586 L36.0859354,441.952535 L27.1294179,445.355181 C27.1294179,445.355181 24.4249658,441.678545 24.1004148,436.776922 C23.9548179,434.906694 24.3431252,433.164273 25.3154566,430.809966 C28.8137685,422.490593 39.8919309,420.410277 47.6333226,425.070008 C55.4233865,430.100863 54.2907097,443.612634 54.5005035,443.582424 L62.2425247,442.323849 C62.2425247,442.323849 61.1093444,430.810155 57.3197128,424.278644 C52.2338912,415.523948 45.2037004,411.749968 38.3373587,411.654092 C34.5958958,411.60542 30.4012783,412.879057 26.4819102,414.55596 C23.9547339,415.636419 22.0758205,417.409156 19.1611551,420.830473 C18.7397213,421.329531 11.5160587,429.810278 19.0633912,446.194545 C23.3878711,455.547363 24.8132102,456.547241 24.8132102,456.547241 L46.8877154,448.421087 L40.3125675,433.697757 L40.3132807,433.696939 Z"
                      id="Path"></path>
                <polygon id="Path"
                         points="46.5651364 386.031784 15.4694972 391.466074 44.4923735 371.599229 42.5809631 358.312777 1.83061255 364.666173 3.15906894 373.857659 33.5099401 369.35926 5.05350709 388.288327 6.94754663 401.786461 47.907691 395.964053 46.5633532 386.031575"></polygon>
                <polygon id="Path"
                         points="42.0298137 332.632965 0.874561161 332.448136 0.664263842 343.686371 41.834202 343.864486 42.0280515 332.632965"></polygon>
                <path d="M115.724087,524.850253 L109.374677,516.981097 L91.3980746,531.655545 C80.4315225,540.620245 73.1279704,529.639133 76.9181055,524.752699 C82.6677148,517.369216 92.6604039,512.272695 99.9157034,505.759646 L93.7941297,497.162925 C93.7941297,497.162925 72.5776813,514.174685 71.8475988,515.304006 C71.0867396,516.40129 62.1790411,522.301049 68.754189,534.525525 C76.7546761,549.262281 90.1657457,544.279888 95.4609416,540.539474 C100.725088,536.782277 115.722828,524.850044 115.722828,524.850044 L115.724087,524.850253 Z"
                      id="Path"></path>
                <polygon id="Path"
                         points="80.7074014 476.379491 67.2644431 483.667098 60.6242591 472.993628 74.2616962 464.366697 69.1427271 454.998774 33.5113457 475.445279 38.6286364 484.603198 53.594488 476.734042 59.6520746 488.167176 45.2530859 496.405988 50.1933106 506.16203 85.6463673 485.53741 80.7063524 476.379491"></polygon>
                <path d="M90.7796024,558.823634 L90.780022,558.824893 L130.395388,538.942943 L139.885831,548.32765 L122.621478,588.801073 L114.297279,580.930448 L118.280425,572.674851 L106.71575,561.629836 L98.3594529,565.934806 L90.7796024,558.823634 Z M121.682231,564.98381 L121.682231,564.98381 L128.323674,550.196703 L114.490499,557.872639 L121.682231,564.98381 Z"
                      id="Combined-Shape" stroke="#979797"></path>
                <polygon id="Path" stroke="#979797"
                         points="246.285176 614.384505 250.641335 621.70589 258.04391 618.513247 251.952756 647.569691 261.638937 649.439751 269.996912 610.839787 261.832996 608.967692 246.285176 614.385407"></polygon>
                <polygon id="Path" stroke="#979797"
                         points="195.817176 614.190865 226.558264 626.381984 230.153291 616.447408 199.640878 604.645037 195.818016 614.190865"></polygon>
            </g>
            <g id="inner" transform="translate(161.000000, 161.000000)">
                <circle id="inner_border" stroke="#7C2E9A" stroke-width="8" cx="245" cy="245" r="245"></circle>
                <g id="contents" transform="translate(76.000000, 52.000000)">
                    <g id="dial" transform="translate(65.000000, 0.000000)">
                        <g id="dial_arm" transform="translate(107.000000, 19.000000)" stroke-width="5"
                           stroke-linecap="round">
                            <path d="M50,132 L1,65" id="shadow" stroke="#C09BC7"></path>
                            <path d="M49.5,0.5 L0.5,64.5" id="dial" stroke="#7C2E9A"></path>
                        </g>
                        <path d="M115.550893,3.89237038 C67.130073,-8.03913471 20.0462379,8.75925431 5.09780138,45.7579331 C-11.7813585,87.5353199 18.7039022,139.247825 73.1885371,161.261047 C127.673172,183.274268 185.524958,167.252246 202.404118,125.47486 C211.103794,103.942406 207.221266,79.7707216 193.955602,58.3864202 C202.33122,75.0084953 204.171126,93.0950227 197.57687,109.416381 C183.144447,145.137879 133.776603,158.876994 87.3107037,140.103551 C40.8448041,121.330109 14.8765399,77.1532316 29.3089621,41.4317332 C41.260792,11.8499161 77.1709413,-2.65662921 115.550893,3.89237038 Z"
                              id="dial_body" fill="#7C2E9A"></path>
                    </g>
                    <g id="cs" transform="translate(0.000000, 243.000000)">
                        <g id="S" transform="translate(176.000000, 0.000000)">
                            <path d="M0,4.99525338 C0,2.23645112 2.24146248,0 5.0012516,0 L105.954779,0 C108.716894,0 112.305899,1.79246765 113.967764,3.99922997 L123.005862,16.00077 C124.669196,18.2094838 123.77684,20 121.019283,20 L4.99831138,20 C2.23782023,20 0,17.763962 0,15.0047466 L0,4.99525338 Z"
                                  id="Rectangle-Copy-3" fill="#7C2E9A"></path>
                            <path d="M132.5,46.5 L159.5,82.5" id="btm_connect" stroke="#7C2E9A" stroke-width="21"
                                  stroke-linecap="round" stroke-linejoin="round"></path>
                            <rect id="btm" fill="#7C2E9A" x="0" y="73" width="162" height="20" rx="3"></rect>
                            <rect id="mid" fill="#7C2E9A" x="0" y="36" width="135" height="20" rx="3"></rect>
                            <path d="M28,20.0000002 L28,15.0005775 C28,13.3519647 26.6584255,12 25.0035095,12 L2.99649048,12 C1.3504982,12 0,13.3434043 0,15.0005775 L0,39.9994225 C0,41.6480353 1.34157448,43 2.99649048,43 L25.0035095,43 C26.6495018,43 28,41.6565957 28,39.9994225 L28,35.9999998 C25.2384582,35.999311 23,33.7579981 23,31.0033142 L23,24.9966858 C23,22.2375154 25.2311327,20.0006858 28,20.0000002 Z"
                                  id="Combined-Shape" fill="#7C2E9A"></path>
                            <path d="M0,4.99525338 C0,2.23645112 2.24146248,0 5.0012516,0 L105.954779,0 C108.716894,0 112.305899,1.79246765 113.967764,3.99922997 L123.005862,16.00077 C124.669196,18.2094838 123.77684,20 121.019283,20 L4.99831138,20 C2.23782023,20 0,17.763962 0,15.0047466 L0,4.99525338 Z"
                                  id="top" fill="#7C2E9A"></path>
                            <path d="M115,73 L115,76.9994225 C115,78.6480353 116.341574,80 117.99649,80 L140.00351,80 C141.649502,80 143,78.6565957 143,76.9994225 L143,52.0005775 C143,50.3519647 141.658426,49 140.00351,49 L117.99649,49 C116.350498,49 115,50.3434043 115,52.0005775 L115,56 L119.954779,56 C122.716894,56 126.441412,57.6765504 128.270674,59.74124 L136.702952,69.25876 C138.533579,71.3249898 137.77684,73 135.019283,73 L115,73 Z"
                                  id="Combined-Shape" fill="#7C2E9A"></path>
                        </g>
                        <g id="C">
                            <path d="M57.7381898,10.5 L3,82.5" id="Line" stroke="#7C2E9A" stroke-width="21"
                                  stroke-linecap="round" stroke-linejoin="round"></path>
                            <rect id="top" fill="#7C2E9A" x="55" y="0" width="107" height="20" rx="3"></rect>
                            <rect id="btm" fill="#7C2E9A" x="1.13686838e-13" y="73" width="162" height="20"
                                  rx="3"></rect>
                        </g>
                    </g>
                </g>
            </g>
        </g>
    </g>
</svg>